<svg width="56" height="56" viewBox="0 0 56 56" xmlns="http://www.w3.org/2000/svg" role="img" aria-labelledby="title desc">
  <title id="title">Ezzi Clarity EC Monogram</title>
  <desc id="desc">Circular gradient logo with the letters E and C for Ezzi Clarity.</desc>
  <defs>
    <linearGradient id="ecGradient" x1="0%" y1="0%" x2="100%" y2="100%">
      <stop offset="0%" stop-color="#0ea5e9"></stop>
      <stop offset="100%" stop-color="#6366f1"></stop>
    </linearGradient>
  </defs>

  <!-- Circle background -->
  <circle cx="28" cy="28" r="26" fill="url(#ecGradient)"></circle>

  <!-- Optional clarity "spark" -->
  <circle cx="40" cy="14" r="3" fill="#e0f2fe" opacity="0.9"></circle>

  <!-- EC monogram -->
  <g fill="#ffffff">
    <!-- E -->
    <path d="M17 18h10c0.9 0 1.5 0.6 1.5 1.4s-0.6 1.4-1.5 1.4h-7.2v4.6h6.1c0.9 0 1.5 0.6 1.5 1.4s-0.6 1.4-1.5 1.4h-6.1v4.8h7.2c0.9 0 1.5 0.6 1.5 1.4S27.9 37 27 37H17c-0.9 0-1.5-0.6-1.5-1.4V19.4C15.5 18.6 16.1 18 17 18z"></path>
    <!-- C -->
    <path d="M39.8 21.2c0.7 0.5 0.9 1.5 0.4 2.2c-0.5 0.7-1.4 0.9-2.1 0.4c-1.2-0.8-2.4-1.2-3.7-1.2
             c-3.1 0-5.4 2.4-5.4 5.6s2.3 5.6 5.4 5.6c1.3 0 2.5-0.4 3.7-1.2c0.7-0.5 1.7-0.3 2.1 0.4
             c0.5 0.7 0.3 1.7-0.4 2.2c-1.7 1.2-3.6 1.9-5.8 1.9c-4.9 0-8.6-3.7-8.6-8.9s3.7-8.9 8.6-8.9
             C36.2 19.3 38.1 20 39.8 21.2z"></path>
  </g>
</svg>
